<?xml version="1.0" standalone="no"?><!DOCTYPE svg PUBLIC "-//W3C//DTD SVG 1.1//EN" "http://www.w3.org/Graphics/SVG/1.1/DTD/svg11.dtd"><svg t="1539072371448" class="icon" style="" viewBox="0 0 1024 1024" version="1.1" xmlns="http://www.w3.org/2000/svg" p-id="12037" xmlns:xlink="http://www.w3.org/1999/xlink" width="200" height="200"><defs><style type="text/css"></style></defs><path d="M398.222222 56.888889H113.777778c-34.133333 0-56.888889 22.755556-56.888889 56.888889v284.444444c0 34.133333 22.755556 56.888889 56.888889 56.888889h284.444444c34.133333 0 56.888889-22.755556 56.888889-56.888889V113.777778c0-34.133333-22.755556-56.888889-56.888889-56.888889z m0 341.333333H113.777778V113.777778h284.444444v284.444444zM910.222222 56.888889h-284.444444c-34.133333 0-56.888889 22.755556-56.888889 56.888889v284.444444c0 34.133333 22.755556 56.888889 56.888889 56.888889h284.444444c34.133333 0 56.888889-22.755556 56.888889-56.888889V113.777778c0-34.133333-22.755556-56.888889-56.888889-56.888889z m0 341.333333h-284.444444V113.777778h284.444444v284.444444zM398.222222 568.888889H113.777778c-34.133333 0-56.888889 22.755556-56.888889 56.888889v284.444444c0 34.133333 22.755556 56.888889 56.888889 56.888889h284.444444c34.133333 0 56.888889-22.755556 56.888889-56.888889v-284.444444c0-34.133333-22.755556-56.888889-56.888889-56.888889z m0 341.333333H113.777778v-284.444444h284.444444v284.444444zM910.222222 568.888889h-284.444444c-34.133333 0-56.888889 22.755556-56.888889 56.888889v284.444444c0 34.133333 22.755556 56.888889 56.888889 56.888889h284.444444c34.133333 0 56.888889-22.755556 56.888889-56.888889v-284.444444c0-34.133333-22.755556-56.888889-56.888889-56.888889z m0 341.333333h-284.444444v-284.444444h284.444444v284.444444z" p-id="12038"></path></svg>