<?xml version="1.0" standalone="no"?><!DOCTYPE svg PUBLIC "-//W3C//DTD SVG 1.1//EN" "http://www.w3.org/Graphics/SVG/1.1/DTD/svg11.dtd"><svg t="1539658139554" class="icon" style="" viewBox="0 0 1024 1024" version="1.1" xmlns="http://www.w3.org/2000/svg" p-id="6020" xmlns:xlink="http://www.w3.org/1999/xlink" width="200" height="200"><defs><style type="text/css"></style></defs><path d="M734.838739 833.679373c0 15.954367 13.053294 29.007661 29.007661 29.007661l71.167876 0c15.954367 0 29.007661-13.053294 29.007661-29.007661l0-643.973754c0-15.954367-13.053294-29.007661-29.007661-29.007661l-71.167876 0c-15.954367 0-29.007661 13.053294-29.007661 29.007661L734.838739 833.679373z" p-id="6021"></path><path d="M631.327224 189.704596c0-15.954367-10.468422-21.211091-23.263843-11.682064l-425.215448 316.65187c-12.795421 9.529027-12.795421 25.122167 0 34.650171l425.215448 316.650847c12.795421 9.529027 23.263843 4.272303 23.263843-11.682064L631.327224 189.704596z" p-id="6022"></path></svg>