<?xml version="1.0" standalone="no"?><!DOCTYPE svg PUBLIC "-//W3C//DTD SVG 1.1//EN" "http://www.w3.org/Graphics/SVG/1.1/DTD/svg11.dtd"><svg t="1545123377137" class="icon" style="" viewBox="0 0 1024 1024" version="1.1" xmlns="http://www.w3.org/2000/svg" p-id="1462" xmlns:xlink="http://www.w3.org/1999/xlink" width="200" height="200"><defs><style type="text/css"></style></defs><path d="M511.706311 64.020082c-247.272733 0-447.725114 200.453405-447.725114 447.725114 0 247.270686 200.452381 447.725114 447.725114 447.725114s447.725114-200.453405 447.725114-447.725114C959.431425 264.473487 758.979044 64.020082 511.706311 64.020082zM346.734002 263.901459c30.991852 0 56.110949 25.12626 56.110949 56.08332 0 31.024597-25.119097 56.150858-56.110949 56.150858-30.994921 0-56.114019-25.12626-56.114019-56.150858C290.61896 289.027719 315.739081 263.901459 346.734002 263.901459zM367.19501 759.587911l-10.55131-167.400614-21.831214 0-8.553817 167.400614L274.915303 759.587911l11.316743-196.426695-35.494399-26.751271 27.093055-145.898905 58.722426 0-4.348028 7.424086 5.783727 11.796674-12.636808 90.394776 19.756973 20.097734 0 1.579985 0.753153-0.785899 0.785899 0.785899 0-1.579985 19.763113-20.097734-12.682857-90.394776 5.829775-11.796674-4.393054-7.424086 59.415204 0 131.819235 6.248308-25.2685 44.416606-117.378337 1.968841 4.044106 120.015398 7.538697 196.426695L367.19501 759.586888zM567.474452 515.494591l31.757285-90.921779 4.840238-13.849426 10.026354 10.659781 28.988218 30.841426 42.37818-72.838935 15.388479 8.897647-48.344055 83.19991-6.056949 10.332323-8.1711-8.66024-27.096125-28.873608-30.567179 87.633896-3.707438 10.552334-9.470699-5.983271-44.157709-27.76639-46.689369 16.275685-5.866614-16.801664 50.779523-17.7165 4.01136-1.396813 3.634784 2.273786L567.474452 515.494591zM651.744741 759.587911 480.040101 759.587911 480.040101 729.241766l171.70464 0L651.744741 759.587911zM772.675998 297.361525l0 316.319296 0 17.778922-17.862833 0L588.140121 631.459742l0 88.427982-49.003064 0 0-88.427982-92.632747 0 0-35.640732 290.491047 0L736.995357 315.216171 431.833169 315.216171 431.833169 279.529391l322.979996 0 17.862833 0L772.675998 297.361525z" p-id="1463"></path></svg>