<?xml version="1.0" standalone="no"?><!DOCTYPE svg PUBLIC "-//W3C//DTD SVG 1.1//EN" "http://www.w3.org/Graphics/SVG/1.1/DTD/svg11.dtd"><svg t="1540884109691" class="icon" style="" viewBox="0 0 1024 1024" version="1.1" xmlns="http://www.w3.org/2000/svg" p-id="20105" xmlns:xlink="http://www.w3.org/1999/xlink" width="200" height="200"><defs><style type="text/css"></style></defs><path d="M758.784 374.784c88.576 0 160.256-71.68 160.256-160.256s-71.68-160.256-160.256-160.256S599.04 126.464 599.04 214.528c0 88.576 71.68 160.256 159.744 160.256z m-89.6-177.152H742.4V124.928c0-9.216 7.68-16.896 16.896-16.896 9.216 0 16.896 7.68 16.896 16.896v73.216h73.216c9.216 0 16.896 7.68 16.896 16.896 0 9.216-7.68 16.896-16.896 16.896h-73.216v73.216c0 9.216-7.68 16.896-16.896 16.896-9.216 0-16.896-7.68-16.896-16.896V231.424h-73.216c-9.216 0-16.896-7.68-16.896-16.896 0-9.216 7.68-16.896 16.896-16.896z" p-id="20106"></path><path d="M758.784 397.312c-100.864 0-182.784-81.92-182.784-182.784 0-5.632 0.512-11.776 1.024-17.408H289.28c-20.48 0-38.4-4.096-51.2-10.24-6.144-3.072-9.728-4.608-10.24-4.608v-0.512l10.24-5.12c12.288-6.656 30.208-10.24 51.2-10.24h293.376c6.144-23.04 16.896-44.032 30.72-62.976H289.28c-29.696 0-57.856 6.656-78.848 16.896-26.624 13.824-43.52 35.328-44.032 59.904v660.48c0 25.6 16.896 47.104 44.032 60.416 20.992 10.752 49.152 17.408 78.848 17.408h537.088c17.408 0 31.232-14.336 31.232-31.232V368.128c-28.16 18.432-62.464 29.184-98.816 29.184z" p-id="20107"></path></svg>