<?xml version="1.0" standalone="no"?><!DOCTYPE svg PUBLIC "-//W3C//DTD SVG 1.1//EN" "http://www.w3.org/Graphics/SVG/1.1/DTD/svg11.dtd"><svg t="1540883048509" class="icon" style="" viewBox="0 0 1024 1024" version="1.1" xmlns="http://www.w3.org/2000/svg" p-id="4129" xmlns:xlink="http://www.w3.org/1999/xlink" width="200" height="200"><defs><style type="text/css"></style></defs><path d="M960 64c0-64-76.8-64-96-64H128c-19.2 0-64 25.6-64 64v896c0 35.2 28.8 64 64 64s64-28.8 64-64v-64h640v64c0 35.2 28.8 64 64 64s64-28.8 64-64v-224V64z m-192 0h64v128h-64V64z m-128 0h64v128h-64V64z m-128 0h64v128h-64V64zM128 256h768v64H128V256z m384 128v128h-64v-128h64z m-128 0v128h-64v-128h64z m-128 0v128H192v-128h64z m-128 256v-64h768v64H128z" p-id="4130"></path></svg>