<?xml version="1.0" standalone="no"?><!DOCTYPE svg PUBLIC "-//W3C//DTD SVG 1.1//EN" "http://www.w3.org/Graphics/SVG/1.1/DTD/svg11.dtd"><svg t="1539071547842" class="icon" style="" viewBox="0 0 1024 1024" version="1.1" xmlns="http://www.w3.org/2000/svg" p-id="7705" xmlns:xlink="http://www.w3.org/1999/xlink" width="200" height="200"><defs><style type="text/css"></style></defs><path d="M956.414207 360.466772 521.600147 104.252389 88.802 359.286899l413.198763 267.88826L956.414207 360.466772 956.414207 360.466772zM521.600147 169.167864l324.485279 191.20681L503.461021 561.470715 195.112258 361.555569 521.600147 169.167864 521.600147 169.167864zM521.600147 169.167864" p-id="7706"></path><path d="M488.16157 764.571413l2.863211 4.867868 480.779951-282.367019-28.327162-48.219211L494.173494 702.731996 97.382423 440.031898l-30.876218 46.63718L487.581356 765.446339 488.16157 764.571413zM488.16157 764.571413" p-id="7707"></path><path d="M494.754732 854.791204 106.248348 585.770144l-31.836079 45.985334 412.689157 285.762349 0.748037-1.080611 3.176342 5.40408 480.779951-282.360879-28.327162-48.232514L494.754732 854.791204zM494.754732 854.791204" p-id="7708"></path></svg>