<?xml version="1.0" standalone="no"?><!DOCTYPE svg PUBLIC "-//W3C//DTD SVG 1.1//EN" "http://www.w3.org/Graphics/SVG/1.1/DTD/svg11.dtd"><svg t="1539588755052" class="icon" style="" viewBox="0 0 1024 1024" version="1.1" xmlns="http://www.w3.org/2000/svg" p-id="1070" xmlns:xlink="http://www.w3.org/1999/xlink" width="200" height="200"><defs><style type="text/css"></style></defs><path d="M391.59808 370.49856H151.10144a14.32064 14.32064 0 0 0-14.30016 14.40256 14.29504 14.29504 0 0 0 14.30016 14.30016h240.39936c7.79776 0 14.19776-6.4 14.19776-14.30016a14.14656 14.14656 0 0 0-14.10048-14.40256z m0 118.10304H151.10144a14.32064 14.32064 0 0 0-14.30016 14.40256 14.29504 14.29504 0 0 0 14.30016 14.30016h240.39936c7.79776 0 14.19776-6.4 14.19776-14.30016a14.14656 14.14656 0 0 0-14.10048-14.40256z m0 118.09792H151.10144a14.32064 14.32064 0 0 0-14.30016 14.40256 14.29504 14.29504 0 0 0 14.30016 14.30016h240.39936c7.79776 0 14.19776-6.4 14.19776-14.30016a14.14656 14.14656 0 0 0-14.10048-14.40256z m225.80224-221.7984c0 7.90016 6.4 14.30016 14.19776 14.30016h240.39936c7.90016 0 14.19776-6.4 14.19776-14.30016s-6.4-14.40256-14.19776-14.40256h-240.30208a14.32064 14.32064 0 0 0-14.29504 14.40256z m254.69952 103.70048h-240.39936c-7.90016 0-14.19776 6.4-14.19776 14.40256 0 7.90016 6.4 14.30016 14.19776 14.30016h240.39936a14.208 14.208 0 0 0 14.19776-14.30016c0-8.00256-6.2976-14.40256-14.19776-14.40256z m0 118.09792h-240.39936c-7.90016 0-14.19776 6.4-14.19776 14.40256 0 7.90016 6.4 14.30016 14.19776 14.30016h240.39936a14.208 14.208 0 0 0 14.19776-14.30016c0-8.00256-6.2976-14.40256-14.19776-14.40256z m-121.90208-479.09888c-88.20224 0-186.79808 13.59872-238.19776 48.50176-51.39968-34.89792-149.89824-48.50176-238.19776-48.50176C147.50208 127.60064 0 155.40224 0 233.90208v626.69824c0 10.5984 4.59776 20.59776 12.6976 27.40224a35.39968 35.39968 0 0 0 28.99968 7.90016c70.00064-12.20096 150.2976-18.69824 232.09984-18.69824s162.0992 6.5024 232.09984 18.69824c0.9984 0.19968 1.89952 0.19968 2.89792 0.30208 0.79872 0.1024 1.50016 0.1024 2.29888 0.1024 0.30208 0 0.59904 0.1024 0.9984 0.1024 1.89952 0 3.79904-0.19968 5.69856-0.50176h0.39936c70.09792-12.20096 150.2976-18.69824 232.09984-18.69824s162.0992 6.5024 232.09984 18.69824c2.00192 0.39936 4.10112 0.50176 6.09792 0.50176a35.36384 35.36384 0 0 0 22.90176-8.40192 35.65568 35.65568 0 0 0 12.6976-27.40224V233.90208c-0.08704-78.49984-147.58912-106.30144-273.88928-106.30144zM71.19872 818.69824V238.40256c14.40256-14.19776 85.49888-39.10144 202.5984-39.10144s188.20096 24.89856 202.5984 39.10144v580.3008c-63.29856-8.69888-132.50048-13.30176-202.5984-13.30176s-139.29472 4.59776-202.5984 13.29664z m881.60256 0c-126.60224-17.39776-278.59968-17.39776-405.20192 0V238.40256c14.40256-14.19776 85.49888-39.10144 202.5984-39.10144s188.20096 24.89856 202.5984 39.10144l0.00512 580.29568z" fill="" p-id="1071"></path></svg>