<?xml version="1.0" standalone="no"?><!DOCTYPE svg PUBLIC "-//W3C//DTD SVG 1.1//EN" "http://www.w3.org/Graphics/SVG/1.1/DTD/svg11.dtd"><svg t="1539071490503" class="icon" style="" viewBox="0 0 1024 1024" version="1.1" xmlns="http://www.w3.org/2000/svg" p-id="5488" xmlns:xlink="http://www.w3.org/1999/xlink" width="200" height="200"><defs><style type="text/css"></style></defs><path d="M75.776 765.696C37.12 765.696 2.56 798.208 2.56 836.864c0 38.656 34.56 73.472 73.472 73.472s71.424-34.56 71.424-73.472c-0.256-38.656-32.768-71.168-71.68-71.168zM75.776 440.576C37.12 440.576 2.56 473.344 2.56 512s34.56 71.424 73.472 71.424 71.424-32.512 71.424-71.424-32.768-71.424-71.68-71.424zM336.64 252.16h617.472C990.72 252.16 1021.44 223.744 1021.44 186.88s-30.464-67.328-67.328-67.328H336.64c-36.608 0-67.328 30.464-67.328 67.328s30.72 65.28 67.328 65.28zM75.776 113.664C37.12 113.664 2.56 148.224 2.56 187.136S37.12 258.56 76.032 258.56s71.424-32.512 71.424-71.424-32.768-73.472-71.68-73.472zM954.368 444.672H336.64c-36.608 0-67.328 30.464-67.328 67.328s30.464 67.328 67.328 67.328h617.472c36.608 0 67.328-30.464 67.328-67.328s-30.464-67.328-67.072-67.328zM954.368 769.792H336.64c-36.608 0-67.328 30.464-67.328 67.328s30.464 67.328 67.328 67.328h617.472c36.608 0 67.328-30.464 67.328-67.328s-30.464-67.328-67.072-67.328z" p-id="5489"></path></svg>