<?xml version="1.0" standalone="no"?><!DOCTYPE svg PUBLIC "-//W3C//DTD SVG 1.1//EN" "http://www.w3.org/Graphics/SVG/1.1/DTD/svg11.dtd"><svg t="1539595028941" class="icon" style="" viewBox="0 0 1024 1024" version="1.1" xmlns="http://www.w3.org/2000/svg" p-id="9347" xmlns:xlink="http://www.w3.org/1999/xlink" width="200" height="200"><defs><style type="text/css"></style></defs><path d="M704.005263 64.061184a32.008333 32.008333 0 1 1 0-64.016666h186.885928A132.974814 132.974814 0 0 1 1023.955041 133.108367v186.930447a32.008333 32.008333 0 0 1-64.016667 0v-186.974964a69.002665 69.002665 0 0 0-69.002665-69.002666h-186.974964z m255.977629 624.763488a32.008333 32.008333 0 1 1 63.972149 0v202.111033A132.974814 132.974814 0 0 1 890.891191 1023.955037h-126.297136a32.008333 32.008333 0 1 1 0-64.016666h126.297136a69.002665 69.002665 0 0 0 69.091701-69.002666v-202.111033z m-624.808006 271.113699a32.008333 32.008333 0 1 1 0 64.016666h-202.111032A133.06385 133.06385 0 0 1 0.044522 890.891187v-186.885928a32.008333 32.008333 0 1 1 64.016666 0v186.885928a69.002665 69.002665 0 0 0 69.002666 69.091701h202.111032zM64.061188 320.038814a32.008333 32.008333 0 1 1-64.016666 0V133.152885A132.974814 132.974814 0 0 1 133.108371 0.044518h186.930447a32.008333 32.008333 0 1 1 0 64.016666h-186.974964a69.002665 69.002665 0 0 0-69.002666 69.002666v186.974964zM511.999781 672.041443c109.602943 0 211.637853-56.893811 308.33062-175.979055-96.692767-119.129763-198.727676-176.023574-308.33062-176.023574-109.602943 0-211.637853 56.893811-308.33062 176.023574 96.692767 119.085245 198.727676 175.979056 308.33062 175.979055z m0 63.972149c-130.615368 0-249.96772-66.554184-357.968021-199.662551a63.972149 63.972149 0 0 1 0-80.621824C262.032061 322.576331 381.384413 256.022148 511.999781 256.022148s249.96772 66.554184 357.968021 199.662551a63.972149 63.972149 0 0 1 0 80.621824c-108.000301 133.108367-227.352653 199.662551-357.968021 199.662551z m0-169.657521a77.550092 77.550092 0 1 1 0-155.144703 77.550092 77.550092 0 0 1 0 155.144703z m0 62.057881a139.607973 139.607973 0 1 0 0-279.260465 139.607973 139.607973 0 0 0 0 279.260465z" p-id="9348"></path></svg>