<?xml version="1.0" standalone="no"?><!DOCTYPE svg PUBLIC "-//W3C//DTD SVG 1.1//EN" "http://www.w3.org/Graphics/SVG/1.1/DTD/svg11.dtd"><svg t="1539507718212" class="icon" style="" viewBox="0 0 1024 1024" version="1.1" xmlns="http://www.w3.org/2000/svg" p-id="3114" xmlns:xlink="http://www.w3.org/1999/xlink" width="200" height="200"><defs><style type="text/css"></style></defs><path d="M874.19904 214.1952H355.05152a132.9408 132.9408 0 0 0-133.49888 133.49376v537.69728A132.9408 132.9408 0 0 0 355.05152 1018.88h519.14752a132.9408 132.9408 0 0 0 133.49888-133.49376V347.68896a132.93568 132.93568 0 0 0-133.49888-133.49376z m7.41888 671.19104c0 3.70688-3.712 7.41376-7.41888 7.41376H355.05152c-3.70688 0-7.41888-3.712-7.41888-7.41376V347.68896c0-3.70688 3.712-7.41376 7.41888-7.41376h519.14752c3.712 0 7.41888 3.70688 7.41888 7.41376v537.69728z" p-id="3115"></path><path d="M792.62208 73.27744C792.62208 39.90528 762.9568 10.24 729.57952 10.24H154.8032A132.9408 132.9408 0 0 0 21.30944 143.73888v593.31072c0 33.3824 29.66528 63.03744 63.03744 63.03744s63.03744-29.66016 63.03744-63.03744V143.73888c0-3.712 3.70688-7.41888 7.41888-7.41888h574.77632c37.08416 0 63.04256-29.66528 63.04256-63.04256z" p-id="3116"></path></svg>