<?xml version="1.0" standalone="no"?><!DOCTYPE svg PUBLIC "-//W3C//DTD SVG 1.1//EN" "http://www.w3.org/Graphics/SVG/1.1/DTD/svg11.dtd"><svg t="1539499808256" class="icon" style="" viewBox="0 0 1024 1024" version="1.1" xmlns="http://www.w3.org/2000/svg" p-id="24518" xmlns:xlink="http://www.w3.org/1999/xlink" width="200" height="200"><defs><style type="text/css"></style></defs><path d="M242.526316 0a242.526316 242.526316 0 0 0 0 485.052632h188.631579a53.894737 53.894737 0 0 0 53.894737-53.894737V242.526316a242.526316 242.526316 0 0 0-242.526316-242.526316z m188.631579 431.157895H242.526316a188.631579 188.631579 0 1 1 188.631579-188.631579zM592.842105 485.052632h188.631579a242.526316 242.526316 0 1 0-242.526316-242.526316v188.631579a53.894737 53.894737 0 0 0 53.894737 53.894737z m0-242.526316a188.631579 188.631579 0 1 1 188.631579 188.631579h-188.631579zM431.157895 538.947368H242.526316a242.526316 242.526316 0 1 0 242.526316 242.526316v-188.631579a53.894737 53.894737 0 0 0-53.894737-53.894737z m0 242.526316a188.631579 188.631579 0 1 1-188.631579-188.631579h188.631579zM781.473684 538.947368h-188.631579a53.894737 53.894737 0 0 0-53.894737 53.894737v188.631579a242.526316 242.526316 0 1 0 242.526316-242.526316z m0 431.157895a188.631579 188.631579 0 0 1-188.631579-188.631579v-188.631579h188.631579a188.631579 188.631579 0 0 1 0 377.263158z" fill="" p-id="24519"></path></svg>