<?xml version="1.0" standalone="no"?><!DOCTYPE svg PUBLIC "-//W3C//DTD SVG 1.1//EN" "http://www.w3.org/Graphics/SVG/1.1/DTD/svg11.dtd"><svg t="1540884209175" class="icon" style="" viewBox="0 0 1024 1024" version="1.1" xmlns="http://www.w3.org/2000/svg" p-id="22393" xmlns:xlink="http://www.w3.org/1999/xlink" width="200" height="200"><defs><style type="text/css"></style></defs><path d="M616.226 795.376a76.656 76.656 0 0 1-20.911 3.241c-10.744 0.077-21.315-2.488-30.729-7.523-17.207-9.529-28.742-26.37-31.153-45.448-2.508-14.198-9.626-62.521 8.989-90.317l208.49-311.232V186.069c-0.115-40.703-29.205-78.348-71.123-79.014H195.541c-42.333 0.116-76.622 33.401-76.737 74.49v660.899c0.116 41.089 34.404 74.384 76.737 74.5h484.248c42.323-0.116 71.008-37.925 71.123-79.014V660.15l-56.694 91.379c-14.218 20.293-40.357 32.466-77.992 43.847zM237.323 334.22a9.872 9.872 0 0 1 9.877-9.877h375.314a9.87 9.87 0 0 1 9.876 9.877v39.507a9.87 9.87 0 0 1-9.876 9.876H247.2a9.87 9.87 0 0 1-9.877-9.876V334.22z m197.534 355.56c0 5.459-4.427 9.877-9.877 9.877H247.2a9.872 9.872 0 0 1-9.877-9.877v-39.507a9.872 9.872 0 0 1 9.877-9.877h177.78c5.45 0 9.877 4.418 9.877 9.877v39.507z m79.014-158.027a9.871 9.871 0 0 1-9.877 9.877H247.2a9.871 9.871 0 0 1-9.877-9.877v-39.506a9.87 9.87 0 0 1 9.877-9.876h256.794a9.87 9.87 0 0 1 9.877 9.876v39.506z m382.741-216.805l-26.139-16.435c-9.646-6.077-22.531-3.443-28.858 5.893L587.579 684.147a119.887 119.887 0 0 0-1.041 52.161c1.466 8.72 0.637 7.408 3.762 8.72a12.57 12.57 0 0 0 9.818 0c17.573-3.704 34.125-11.034 48.516-21.509l254.055-380.552c6.249-9.364 3.53-21.884-6.077-28.019z" p-id="22394"></path></svg>