<?xml version="1.0" standalone="no"?><!DOCTYPE svg PUBLIC "-//W3C//DTD SVG 1.1//EN" "http://www.w3.org/Graphics/SVG/1.1/DTD/svg11.dtd"><svg t="1543130930728" class="icon" style="" viewBox="0 0 1024 1024" version="1.1" xmlns="http://www.w3.org/2000/svg" p-id="17488" xmlns:xlink="http://www.w3.org/1999/xlink" width="200" height="200"><defs><style type="text/css"></style></defs><path d="M9.216 462.912c-8.896 205.376 187.456 199.424 187.456 199.424l5.952 300.544 50.624 32.704 136.896 0 32.704-41.6 0-279.68 95.232 0L518.08 221.888 223.424 221.888C223.424 221.888 18.176 257.664 9.216 462.912z" p-id="17489"></path><path d="M580.48 221.888l89.344 0 0 455.36-89.344 0 0-455.36Z" p-id="17490"></path><path d="M964.48 28.48c-35.776 2.944-229.12 160.704-229.12 160.704l0 526.656c0 0 181.504 122.048 220.096 148.864 38.72 26.752 59.648-35.776 59.648-35.776L1015.104 73.152C1015.104 73.152 1000.256 25.536 964.48 28.48z" p-id="17491"></path></svg>