<?xml version="1.0" standalone="no"?><!DOCTYPE svg PUBLIC "-//W3C//DTD SVG 1.1//EN" "http://www.w3.org/Graphics/SVG/1.1/DTD/svg11.dtd"><svg t="1539072281822" class="icon" style="" viewBox="0 0 1024 1024" version="1.1" xmlns="http://www.w3.org/2000/svg" p-id="10384" xmlns:xlink="http://www.w3.org/1999/xlink" width="200" height="200"><defs><style type="text/css"></style></defs><path d="M710.2 356.6c0-20-17.4-36.2-39-36.2h-370c-21.6 0-39 16.2-39 36.2s17.4 36.2 39 36.2h370c21.6 0 39-16.2 39-36.2z m-409.2 115.6c-21.6 0-39 16.2-39 36.2s17.4 36.2 39 36.2h266.4c21.6 0 39-16.2 39-36.2s-17.4-36.2-39-36.2H301z" fill="" p-id="10385"></path><path d="M487.4 1008H217.6c-90.8 0-164.8-74-164.8-164.8V180.8C52.8 90 126.8 16 217.6 16h588.8c90.8 0 164.8 74 164.8 164.8v276.4c0 19.8-16.2 36-36 36s-28-16.2-28-36V180.8c0-51.2-49.6-100.8-100.8-100.8H217.6c-51.2 0-100.8 49.6-100.8 100.8v662.4c0 51.2 49.6 100.8 100.8 100.8h269.8c19.8 0 36 8.2 36 28s-16.2 36-36 36z" fill="" p-id="10386"></path><path d="M612 16H412c-11 0-20 9-20 20v80c0 11 9 20 20 20h200c11 0 20-9 20-20V36c0-11-9-20-20-20zM992.6 950.4l-67.8-62.6c26.4-34.6 42-76.6 42-122 0-116.2-102.2-210.8-228-210.8s-228 94.6-228 210.8 102.2 210.8 228 210.8c48.4 0 93.4-14 130.4-38l68 62.8c7.2 6.8 17.4 10.6 27.6 10.6 10.4 0 20.4-3.8 27.6-10.6 15.4-14 15.4-37 0.2-51z m-403.6-184.8c0-76.6 67-138.6 149.8-138.6 82.8 0.2 149.6 62 149.8 138.6 0 76.6-67 138.6-149.8 138.6s-149.8-62-149.8-138.6z" fill="" p-id="10387"></path></svg>