<?xml version="1.0" standalone="no"?><!DOCTYPE svg PUBLIC "-//W3C//DTD SVG 1.1//EN" "http://www.w3.org/Graphics/SVG/1.1/DTD/svg11.dtd"><svg t="1539594803489" class="icon" style="" viewBox="0 0 1024 1024" version="1.1" xmlns="http://www.w3.org/2000/svg" p-id="7445" xmlns:xlink="http://www.w3.org/1999/xlink" width="200" height="200"><defs><style type="text/css"></style></defs><path d="M885.227104 64.087483c5.498926 0 8.998243 1.799649 10.697911 2.999414v887.626636L545.89338 736.456161c-20.695958-12.897481-46.990822-12.897481-67.68678 0L128.074985 954.713533V67.086897c1.599688-1.199766 5.198985-2.999414 10.697911-2.999414h746.454208m0-64.087483H138.772896C97.580941 0 64.087483 28.794376 64.087483 64.087483v911.721929c0 18.096466 11.697715 34.493263 30.594025 42.791642 8.098418 3.499317 16.796719 5.298965 25.39504 5.298966 11.597735 0 23.095489-3.099395 32.893575-9.198204l359.029877-223.956258 359.029877 223.856278c9.798086 6.098809 21.295841 9.198203 32.893575 9.198203 8.598321 0 17.296622-1.699668 25.39504-5.198985 18.896309-8.198399 30.594025-24.595196 30.594025-42.791642V64.087483c0-35.293107-33.493458-64.087483-74.685413-64.087483z" fill="" p-id="7446"></path><path d="M256.04999 320.137473h511.90002c17.696544 0 31.993751-14.297208 31.993751-31.993751s-14.297208-31.993751-31.993751-31.993751H256.04999c-17.696544 0-31.993751 14.297208-31.993751 31.993751s14.297208 31.993751 31.993751 31.993751zM256.04999 512.09998h511.90002c17.696544 0 31.993751-14.297208 31.993751-31.993751s-14.297208-31.993751-31.993751-31.993751H256.04999c-17.696544 0-31.993751 14.297208-31.993751 31.993751s14.297208 31.993751 31.993751 31.993751z" fill="" p-id="7447"></path></svg>