<?xml version="1.0" standalone="no"?><!DOCTYPE svg PUBLIC "-//W3C//DTD SVG 1.1//EN" "http://www.w3.org/Graphics/SVG/1.1/DTD/svg11.dtd"><svg t="1539594760329" class="icon" style="" viewBox="0 0 1024 1024" version="1.1" xmlns="http://www.w3.org/2000/svg" p-id="6415" xmlns:xlink="http://www.w3.org/1999/xlink" width="200" height="200"><defs><style type="text/css"></style></defs><path d="M795.364563 700.580933H310.320162v-53.610487H795.364563z m0-161.745618H310.320162V485.224827H795.364563zM175.301602 323.298783h620.062961v54.247991H175.301602z m54.308133 377.246065h-54.175821v-53.574402h54.211907z m-54.211906-215.307992h54.211906v53.610487h-54.175821z m786.692102 415.424141c-45.419161-47.307616-58.542123-122.184279-58.542123-162.888315V188.580933c0-67.358925-87.109524-134.79002-161.745618-134.79002H229.609735c-74.575953 0-161.745619 67.419067-161.745618 134.79002v620.002819c0 67.358925 87.169666 161.745619 161.745618 161.745619H876.556125v53.658601H224.786355C108.640323 1023.975943 14.121317 935.44707 14.121317 826.445896V197.518019C14.121317 88.649157 108.640323 0 224.786355 0h521.779073c116.206174 0 210.665038 88.649157 210.665038 197.518019 0 0 0.180426 276.568529 0.180425 534.733637 0 59.035286 9.093455 110.913687 52.467792 144.472866z" fill="#000333" p-id="6416"></path></svg>