<?xml version="1.0" standalone="no"?><!DOCTYPE svg PUBLIC "-//W3C//DTD SVG 1.1//EN" "http://www.w3.org/Graphics/SVG/1.1/DTD/svg11.dtd"><svg t="1539072478252" class="icon" style="" viewBox="0 0 1024 1024" version="1.1" xmlns="http://www.w3.org/2000/svg" p-id="13518" xmlns:xlink="http://www.w3.org/1999/xlink" width="200" height="200"><defs><style type="text/css"></style></defs><path d="M512 0c-25.6 0-42.666667 17.066667-42.666667 42.666667v460.8c0-17.066667-8.533333-42.666667-25.6-59.733334l-298.666666-256C128 179.2 102.4 170.666667 85.333333 170.666667c-51.2 0-85.333333 34.133333-85.333333 85.333333v512c0 17.066667 8.533333 42.666667 17.066667 59.733333 34.133333 34.133333 85.333333 42.666667 119.466666 8.533334l298.666667-256 8.533333-8.533334c8.533333-17.066667 17.066667-34.133333 17.066667-51.2v460.8c8.533333 25.6 25.6 42.666667 51.2 42.666667s42.666667-17.066667 42.666667-42.666667V42.666667C554.666667 17.066667 537.6 0 512 0zM85.333333 768V256l298.666667 256L85.333333 768zM938.666667 170.666667c-17.066667 0-42.666667 8.533333-59.733334 17.066666l-298.666666 256c-17.066667 17.066667-25.6 42.666667-25.6 68.266667 0 17.066667 8.533333 42.666667 17.066666 59.733333l8.533334 8.533334 298.666666 256c34.133333 34.133333 93.866667 25.6 119.466667-8.533334 17.066667-17.066667 25.6-42.666667 25.6-59.733333V256c0-51.2-34.133333-85.333333-85.333333-85.333333z m0 597.333333L640 512 938.666667 256v512z" p-id="13519"></path></svg>